HIERARCHY
ROOT Hips
{
	OFFSET 0.000000 0.000000 0.000000
	CHANNELS 6 Xposition Yposition Zposition Zrotation Yrotation Xrotation 
	JOINT LeftUpLeg_virtual
	{
		OFFSET 0.000000 0.000000 0.000000
		CHANNELS 3 Zrotation Yrotation Xrotation
		JOINT LeftUpLeg
		{
			OFFSET 10.205400 -3.823500 0.155100
			CHANNELS 3 Zrotation Yrotation Xrotation
			JOINT LeftLeg
			{
				OFFSET 0.708757 -12.982077 0.567790
				CHANNELS 3 Zrotation Yrotation Xrotation
				JOINT LeftFoot
				{
					OFFSET -0.708756 -10.717838 -2.184338
					CHANNELS 3 Zrotation Yrotation Xrotation
					JOINT LeftToeBase
					{
						OFFSET 0.108149 -7.191104 7.560241
						CHANNELS 3 Zrotation Yrotation Xrotation
						End Site
						{
							OFFSET 0.000000 0.000000 0.000000
						}
					}
				}
			}
		}
	}
	JOINT RightUpLeg_virtual
	{
		OFFSET 0.000000 0.000000 0.000000
		CHANNELS 3 Zrotation Yrotation Xrotation
		JOINT RightUpLeg
		{
			OFFSET -10.205400 -3.823500 0.005500
			CHANNELS 3 Zrotation Yrotation Xrotation
			JOINT RightLeg
			{
				OFFSET -0.708756 -12.982134 0.610632
				CHANNELS 3 Zrotation Yrotation Xrotation
				JOINT RightFoot
				{
					OFFSET 0.708754 -10.717769 -1.945823
					CHANNELS 3 Zrotation Yrotation Xrotation
					JOINT RightToeBase
					{
						OFFSET -0.108140 -7.191069 7.372968
						CHANNELS 3 Zrotation Yrotation Xrotation
						End Site
						{
							OFFSET 0.000000 0.000000 0.000000
						}
					}
				}
			}
		}
	}
	JOINT Spine_virtual
	{
		OFFSET 0.000000 0.000000 0.000000
		CHANNELS 3 Zrotation Yrotation Xrotation
		JOINT Spine
		{
			OFFSET 0.000000 6.876099 0.125700
			CHANNELS 3 Zrotation Yrotation Xrotation
			JOINT Spine1
			{
				OFFSET 0.000000 8.022060 0.146608
				CHANNELS 3 Zrotation Yrotation Xrotation
				JOINT Spine2
				{
					OFFSET 0.000000 9.168068 0.167552
					CHANNELS 3 Zrotation Yrotation Xrotation
					JOINT Neck_virtual
					{
						OFFSET 0.000000 0.000000 0.000000
						CHANNELS 3 Zrotation Yrotation Xrotation
						JOINT Neck
						{
							OFFSET 0.000000 10.314075 0.188496
							CHANNELS 3 Zrotation Yrotation Xrotation
							JOINT Head
							{
								OFFSET 0.000000 7.643700 -2.377400
								CHANNELS 3 Zrotation Yrotation Xrotation
								End Site
								{
									OFFSET 0.000000 0.000000 0.000000
								}
							}
						}
					}
					JOINT LeftShoulder_virtual
					{
						OFFSET 0.000000 0.000000 0.000000
						CHANNELS 3 Zrotation Yrotation Xrotation
						JOINT LeftShoulder
						{
							OFFSET 4.392200 8.824978 0.174984
							CHANNELS 3 Zrotation Yrotation Xrotation
							JOINT LeftArm
							{
								OFFSET 8.771219 -2.981674 -0.026999
								CHANNELS 3 Zrotation Yrotation Xrotation
								JOINT LeftForeArm
								{
									OFFSET 8.512804 0.000000 -0.000000
									CHANNELS 3 Zrotation Yrotation Xrotation
									JOINT LeftHand
									{
										OFFSET 18.484802 0.000000 -0.000000
										CHANNELS 3 Zrotation Yrotation Xrotation
										End Site
										{
											OFFSET 0.000000 0.000000 0.000000
										}
									}
								}
							}
						}
					}
					JOINT RightShoulder_virtual
					{
						OFFSET 0.000000 0.000000 0.000000
						CHANNELS 3 Zrotation Yrotation Xrotation
						JOINT RightShoulder
						{
							OFFSET -4.392200 8.824993 0.141379
							CHANNELS 3 Zrotation Yrotation Xrotation
							JOINT RightArm
							{
								OFFSET -8.771282 -2.981682 -0.094208
								CHANNELS 3 Zrotation Yrotation Xrotation
								JOINT RightForeArm
								{
									OFFSET -8.494598 0.000000 0.000000
									CHANNELS 3 Zrotation Yrotation Xrotation
									JOINT RightHand
									{
										OFFSET -18.483803 0.000000 0.000001
										CHANNELS 3 Zrotation Yrotation Xrotation
										End Site
										{
											OFFSET 0.000000 0.000000 0.000000
										}
									}
								}
							}
						}
					}
				}
			}
		}
	}
}
MOTION
Frames: 5
Frame Time: 0.033333
-3.085773 36.147175 86.049751 179.922633 46.115764 179.441651 -2.419852 -2.983808 8.086173 -8.325455 1.200710 -19.852177 15.017677 14.321311 19.483115 -3.374760 -2.392951 12.363691 0.000000 0.000000 0.000000 3.122842 -2.083596 4.468980 6.896547 11.463754 -13.770344 -9.121638 7.756598 10.986209 5.400157 8.163835 9.795027 0.000000 0.000000 0.000000 1.044810 0.595521 -3.287896 2.252260 -0.437974 -10.668916 -1.029667 -2.444854 8.575378 0.009248 0.062914 -0.114945 -1.518025 -0.266329 11.388377 -3.848755 0.578316 12.356597 0.000000 0.000000 0.000000 0.223643 0.463932 8.484310 -13.319326 -4.467985 0.692939 -57.721102 22.535115 15.654790 0.015622 -43.509381 10.243018 0.000000 0.000000 0.000000 -3.934618 1.602025 7.860182 25.889489 2.477412 -0.744381 47.338340 -24.087115 22.468191 -7.900852 37.045990 -5.302030 0.000000 0.000000 0.000000 
-3.022055 36.130909 86.051491 -179.953833 46.008182 179.336302 -2.565959 -2.785091 8.316607 -8.550032 1.504850 -19.966120 14.934852 14.723589 19.906438 -3.269821 -2.289411 12.135067 0.000000 0.000000 0.000000 3.024910 -2.057930 4.431660 6.762319 11.360590 -14.137414 -9.215295 8.110611 10.797580 5.265493 8.095900 9.512008 0.000000 0.000000 0.000000 1.029059 0.725748 -2.981896 2.176497 -0.495524 -10.477429 -1.006825 -2.430894 8.633222 -0.002627 -0.091066 -0.153820 -1.450386 -0.159095 11.297259 -3.817052 0.599435 12.203941 0.000000 0.000000 0.000000 0.329436 0.585376 8.465204 -13.264070 -4.520381 0.729100 -57.743334 22.507213 15.814975 0.090800 -43.452304 10.174639 0.000000 0.000000 0.000000 -3.932789 1.598418 7.889822 25.939112 2.485284 -0.752299 47.371060 -23.966007 22.354294 -7.937925 37.165224 -5.161250 0.000000 0.000000 0.000000 
-2.929804 36.128834 86.064896 179.979911 45.857426 179.223822 -2.589349 -2.770156 8.562213 -8.443701 1.427018 -20.077753 15.005289 14.683174 19.848393 -3.426945 -2.337317 12.094341 0.000000 0.000000 0.000000 2.998438 -2.133321 4.686093 6.921131 11.302421 -14.350308 -9.148529 8.147617 11.055404 5.097873 8.096884 9.539204 0.000000 0.000000 0.000000 0.970602 0.599570 -2.710364 1.975571 -0.487697 -10.275302 -0.950347 -2.408879 8.612058 -0.019015 0.057242 -0.226189 -1.490316 -0.189667 11.394847 -3.836595 0.414172 12.079713 0.000000 0.000000 0.000000 0.313106 0.591219 8.517488 -13.158546 -4.618294 0.742169 -57.677655 22.575720 15.808840 0.065858 -43.345589 10.219439 0.000000 0.000000 0.000000 -3.923730 1.713233 7.922931 25.899061 2.558268 -0.798941 47.388706 -23.830282 22.874486 -7.852942 36.953113 -5.011194 0.000000 0.000000 0.000000 
-2.829246 36.125713 86.110741 179.947822 45.629584 179.215776 -2.597558 -2.871740 8.733161 -8.332817 1.315122 -20.156831 15.168868 14.631240 19.741408 -3.630188 -2.378172 12.076684 0.000000 0.000000 0.000000 3.029642 -2.262754 4.880821 7.038450 11.359580 -14.655805 -9.097657 8.182874 11.326797 4.933648 8.156475 9.555083 0.000000 0.000000 0.000000 0.863331 0.533626 -2.481979 1.853207 -0.438765 -10.049415 -0.973667 -2.331379 8.565600 -0.009259 0.070602 -0.164476 -1.457188 -0.206452 11.468687 -3.882022 0.539835 11.907917 0.000000 0.000000 0.000000 0.322976 0.624466 8.572681 -13.045058 -4.806234 0.787107 -57.600187 22.663879 15.730245 0.180895 -43.309318 10.098085 0.000000 0.000000 0.000000 -3.900182 1.712157 7.946859 25.897653 2.515079 -0.879392 47.449935 -23.650298 23.229388 -7.893202 36.793447 -4.960758 0.000000 0.000000 0.000000 
-2.725257 36.122673 86.182358 179.857964 45.434084 179.163266 -2.609264 -2.937249 8.862272 -8.216739 1.268078 -20.205028 15.360539 14.485648 19.574018 -3.822729 -2.374026 12.064982 0.000000 0.000000 0.000000 3.077731 -2.416311 5.033062 7.106116 11.477452 -14.953874 -9.045095 8.214198 11.599312 4.794799 8.272162 9.551412 0.000000 0.000000 0.000000 0.763889 0.440427 -2.347884 1.622435 -0.425699 -9.681264 -0.995762 -2.290821 8.582618 0.018996 0.059543 -0.142858 -1.513597 -0.048918 11.546864 -3.888905 0.439808 11.535508 0.000000 0.000000 0.000000 0.244316 0.771514 8.632271 -12.879016 -4.989088 0.850740 -57.588385 22.753824 15.410056 0.204077 -43.227615 10.046950 0.000000 0.000000 0.000000 -3.938223 1.836103 8.038220 25.868438 2.578179 -1.013913 47.557747 -23.418041 23.552528 -7.853386 36.546167 -4.806705 0.000000 0.000000 0.000000 
